<?xml version="1.0" encoding="utf-8"?>
<!-- Generator: Adobe Illustrator 21.0.0, SVG Export Plug-In . SVG Version: 6.00 Build 0)  -->
<svg version="1.1" id="Layer_1" xmlns="http://www.w3.org/2000/svg" xmlns:xlink="http://www.w3.org/1999/xlink" x="0px" y="0px"
	 viewBox="0 0 25.7 25.7" style="enable-background:new 0 0 25.7 25.7;" xml:space="preserve">
<style type="text/css">
	.st0{fill:#3E4A56;}
</style>
<g transform="translate(0,-952.36218)">
	<g>
		<path class="st0" d="M12.9,978c-7,0-12.8-5.7-12.8-12.8c0-7,5.7-12.8,12.8-12.8c7,0,12.8,5.7,12.8,12.8
			C25.6,972.3,19.9,978,12.9,978z M6.4,973.5c1.9,1.4,4.1,2.2,6.4,2.2s4.6-0.8,6.4-2.2c-0.7-2.9-3.4-5-6.4-5S7.2,970.6,6.4,973.5z
			 M12.9,966.3c3.6,0,6.8,2.2,8.2,5.5c1.5-1.9,2.3-4.2,2.3-6.6c0-5.8-4.7-10.5-10.5-10.5s-10.5,4.7-10.5,10.5c0,2.4,0.8,4.7,2.3,6.6
			C6,968.5,9.3,966.3,12.9,966.3z M12.9,968.1c-2.8,0-5-2.5-5-5.6s2.2-5.6,5-5.6s5,2.5,5,5.6S15.6,968.1,12.9,968.1z M12.9,959.2
			c-1.5,0-2.8,1.5-2.8,3.3s1.2,3.3,2.8,3.3c1.5,0,2.8-1.5,2.8-3.3S14.4,959.2,12.9,959.2z"/>
	</g>
</g>
</svg>
