<?xml version="1.0" encoding="utf-8"?>
<!-- Generator: Adobe Illustrator 21.0.0, SVG Export Plug-In . SVG Version: 6.00 Build 0)  -->
<svg version="1.1"
	 id="svg6" xmlns:cc="http://creativecommons.org/ns#" xmlns:dc="http://purl.org/dc/elements/1.1/" xmlns:rdf="http://www.w3.org/1999/02/22-rdf-syntax-ns#" xmlns:svg="http://www.w3.org/2000/svg"
	 xmlns="http://www.w3.org/2000/svg" xmlns:xlink="http://www.w3.org/1999/xlink" x="0px" y="0px" viewBox="0 0 1024 768"
	 style="enable-background:new 0 0 1024 768;" xml:space="preserve">
<style type="text/css">
	.st0{fill:#292D32;}
</style>
<g id="logo-group">
	<g id="title">
		<path id="path14" class="st0" d="M366.3,341.3c7.1,0,12.2,1.6,15.2,4.7c2.2,2.4,3.4,5.4,3.4,9c0,1.2-0.1,2.6-0.4,3.9l-0.8,4.5
			c-0.7,3.6-2,6.3-4,8.3c-1.9,2-3.7,3-5.1,3l-0.1,0.7c1.7,0,3.5,1,5.3,2.9c1.8,1.9,2.7,4.2,2.7,6.8c0,1.1-0.1,2.2-0.4,3.4l-0.6,2.9
			c-1,5.4-3.4,9.6-7.2,12.6c-3.7,3.1-9,4.6-15.7,4.6h-31.3l11.9-67.4H366.3z M357.8,381.2H349l-2.2,12.9h8.9c0.1,0,0.2,0,0.4,0
			c2.9,0,5.1-0.7,6.8-2c1.7-1.4,2.5-3,2.5-5C365.3,383.2,362.8,381.2,357.8,381.2z M360.4,355.9h-7l-2.4,13.9h6.9c6,0,9-2.6,9-7.9
			c0-1.8-0.6-3.3-1.7-4.4C364.1,356.5,362.5,355.9,360.4,355.9z"/>
		<path id="path16" class="st0" d="M408.7,396.8c1.4,0,2.7-0.3,3.8-0.9l-0.5,10.6c-2.9,2.4-6.3,3.7-10,3.7c-5.7,0-9.4-1.3-11-3.9
			c-1.1-1.7-1.7-3.6-1.7-5.5c0-2,0.1-3.7,0.4-5.2l5.6-31.6h15.9l-5.2,29.5c-0.1,0.4-0.1,0.7-0.1,1
			C405.9,395.9,406.8,396.8,408.7,396.8z M397.2,348.5c0-4,0.9-6.9,2.6-8.7c1.8-1.9,4.6-2.8,8.3-2.8c5.2,0,7.9,2.3,7.9,6.9
			c0,3.9-0.9,6.8-2.7,8.6c-1.7,1.8-4.5,2.7-8.3,2.7C399.8,355.2,397.2,352.9,397.2,348.5L397.2,348.5z"/>
		<path id="path18" class="st0" d="M438.2,410c-7.2,0-12.4-1.6-15.6-4.9c-2.4-2.4-3.6-5.6-3.6-9.5c0-1.3,0.1-2.7,0.4-4.2l6.4-36.2
			l17.1-7.1l-2.7,15.6H466l-2.3,13.2h-25.8l-1.9,10.6c-0.2,1.2-0.4,2.2-0.4,3.2c0,3.9,1.9,5.9,5.6,5.9c2,0,3.7-0.8,5-2.5
			c1.4-1.7,2.3-3.9,2.8-6.7h15.5C461.9,402.5,453.1,410,438.2,410L438.2,410z"/>
		<path id="path20" class="st0" d="M488.5,410c-13,0-19.5-4.5-19.5-13.5c0-1.2,0.1-2.6,0.4-4l2-11.6c1-6,3.7-10.6,8.1-13.8
			c4.5-3.2,10.2-4.8,17-4.9c13.3,0,19.9,4.6,19.9,13.9c0,2-0.2,3.8-0.7,5.4c-0.4,1.6-0.9,2.6-1.4,3.2l-0.7,0.9h-15.9
			c1.6-1.4,2.3-3,2.3-4.9c0-3.4-1.7-5.1-5.1-5.1c-2,0-3.7,0.6-5.1,1.8c-1.4,1.2-2.4,3-2.8,5.4l-1.2,6.8c-0.1,0.6-0.2,1.2-0.2,1.8
			c0,3.3,2.1,5,6.2,5c1.4,0,2.6-0.4,3.7-1.3c1.1-0.9,1.8-1.8,2-2.9l15.5,0.2C510.8,404.2,502.7,410,488.5,410L488.5,410z"/>
		<path id="path22" class="st0" d="M549.1,362.4c6.7,0,11.8,1.5,15.3,4.4c2.7,2.3,4,5.5,4,9.6c0,1.4-0.2,2.9-0.5,4.5l-2,11
			c-1.2,6.6-4,11.3-8.3,14c-4.3,2.7-10.1,4.1-17.3,4.1c-7.2,0-12.5-1.4-15.9-4.1c-2.5-2.1-3.7-5.1-3.7-9.3c0-1.4,0.2-3,0.5-4.8l2-11
			C525.3,368.6,533.9,362.4,549.1,362.4z M551.6,382.8c0.1-0.6,0.2-1.4,0.2-2.3c0-1-0.4-2.1-1.2-3.3c-0.8-1.2-2.2-1.8-4.3-1.8
			c-2,0-3.7,0.7-5.1,2.1c-1.4,1.3-2.2,3.1-2.6,5.3l-1.2,7c-0.1,0.6-0.2,1.4-0.2,2.4c0,0.9,0.4,2,1.2,3.1c0.8,1.1,2.2,1.7,4.2,1.7
			c2.1,0,3.8-0.7,5.1-2.1c1.4-1.4,2.2-3.2,2.6-5.1L551.6,382.8z"/>
		<path id="path24" class="st0" d="M593.7,396.8c1.4,0,2.7-0.3,3.8-0.9l-0.5,10.6c-2.9,2.4-6.3,3.7-10,3.7c-5.7,0-9.4-1.3-11-3.9
			c-1.1-1.7-1.7-3.6-1.7-5.5c0-2,0.1-3.7,0.4-5.2l5.6-31.6h15.9l-5.2,29.5c-0.1,0.4-0.1,0.7-0.1,1
			C590.9,395.9,591.8,396.8,593.7,396.8L593.7,396.8z M582.2,348.5c0-4,0.9-6.9,2.6-8.7c1.8-1.9,4.6-2.8,8.3-2.8
			c5.2,0,7.9,2.3,7.9,6.9c0,3.9-0.9,6.8-2.7,8.6c-1.7,1.8-4.5,2.7-8.3,2.7C584.8,355.2,582.2,352.9,582.2,348.5L582.2,348.5z"/>
		<path id="path26" class="st0" d="M633.3,380c0-2.7-1.3-4-3.9-4c-2.6,0-4.7,1-6.4,2.9l-5.2,29.9h-15.9l8-45h14.8l-1,5.5
			c3.7-4.6,8.3-6.8,13.9-6.8s9.3,1.4,11,4.1c1.1,1.7,1.6,3.7,1.6,6s-0.2,4.3-0.5,6.3l-2.5,14.4c-0.1,0.4-0.1,0.7-0.1,1
			c0,1.7,0.9,2.5,2.8,2.5c1.4,0,2.7-0.3,3.8-0.9l-0.5,10.6c-2.9,2.4-6.3,3.7-10,3.7c-8.5,0-12.7-3.6-12.7-10.7c0-1.2,0.1-2.6,0.4-4
			l2.2-12.4C633.2,381.8,633.3,380.8,633.3,380z"/>
		<path id="path28" class="st0" d="M668.5,402.9l2.2-12.1h-11.8l2-11h11.8l2.1-11.6h11l-2.1,11.6h11.9l-2,11h-11.9l-2.2,12.1H668.5z
			"/>
	</g>
	<g id="tagline">
	</g>
</g>
<path class="st0" d="M756.3,421.1l-25.6-56l13-67.5c0.3-1.9-0.4-3.7-1.9-4.8l-65.4-46.5l-29.6-64.8c-0.8-1.7-2.5-2.8-4.3-2.8h-61
	l-54.4-38.7c-1.5-1.1-3.6-1.2-5.2-0.2l-65.8,38.9h-77.2c-1.9,0-3.6,1.1-4.3,2.7l-30.5,63.5l-58.4,34.6c-1.7,1-2.6,2.9-2.3,4.8
	l9.7,67.1l-27.2,57.1c-0.8,1.6-0.6,3.6,0.6,5l43.9,55.8l11.5,79.5c0.3,1.9,1.6,3.4,3.4,3.9l65.9,19.4l38.1,48.5
	c1.2,1.5,3.1,2.1,4.9,1.7l70.1-17l73.7,21.7c0.5,0.1,0.9,0.2,1.4,0.2c1.4,0,2.7-0.6,3.6-1.6l43.1-49.8l64.2-15.6
	c1.8-0.5,3.2-1.9,3.6-3.8l14.7-75.7l47.1-54.4C756.8,424.8,757.1,422.8,756.3,421.1z M733.7,298.7l-9.9,51.2l-39.4-86.4L733.7,298.7
	z M639.3,188.2l21.4,46.9l-65.8-46.9H639.3z M524.1,149.5l40.8,29.1H475L524.1,149.5z M381.9,188.2h58L359,236.1L381.9,188.2z
	 M336.6,260.4l-36.1,75.3l-7.2-49.7L336.6,260.4z M275.7,409.7l19.9-41.5l11.8,81.7L275.7,409.7z M330.8,544.3l-8.7-60l58.7,74.7
	L330.8,544.3z M434.9,612.2l-27.9-35.5l78.9,23.2L434.9,612.2z M577.7,616.8l-54.8-16.1l87-21.1L577.7,616.8z M685,551.5l-48.1,11.7
	l59-68L685,551.5z M699.5,476.3L620.8,567l-116.3,28.2l-107.7-31.6l-77.5-98.4L303,352.8l48.5-101.2l107.2-63.5h119.6l90.4,64.4
	l52,113.8L699.5,476.3z M712.1,461.8l15.5-80.4l18.7,41L712.1,461.8z"/>
</svg>
