<?xml version="1.0" encoding="utf-8"?>
<!-- Generator: Adobe Illustrator 21.0.0, SVG Export Plug-In . SVG Version: 6.00 Build 0)  -->
<svg version="1.1" id="Layer_1" xmlns="http://www.w3.org/2000/svg" xmlns:xlink="http://www.w3.org/1999/xlink" x="0px" y="0px"
	 viewBox="0 0 1024 768" style="enable-background:new 0 0 1024 768;" xml:space="preserve">
<style type="text/css">
	.st0{fill:#6ECCDF;}
</style>
<g>
	<g>
		<path class="st0" d="M590,419c31.5,0,57-25.5,57-57s-25.5-57-57-57s-57,25.5-57,57S558.5,419,590,419z M590,306.8
			c30.4,0,55.2,24.8,55.2,55.2s-24.8,55.2-55.2,55.2s-55.2-24.8-55.2-55.2S559.6,306.8,590,306.8z"/>
		<path class="st0" d="M590,421c-32.5,0-59-26.5-59-59c0-32.5,26.5-59,59-59s59,26.5,59,59C649,394.5,622.5,421,590,421z M590,308.8
			c-29.3,0-53.2,23.9-53.2,53.2s23.9,53.2,53.2,53.2s53.2-23.9,53.2-53.2S619.3,308.8,590,308.8z"/>
	</g>
	<g>
		<path class="st0" d="M634,362l-44-44l-32.6,32.6h-0.1v0.1L546,362l44,44L634,362z M590,403.5l-19.6-19.6h39.2L590,403.5z
			 M630.6,361.1h-81.2l8.7-8.7h63.8L630.6,361.1z M630.6,362.9l-8.7,8.7h-63.8l-8.7-8.7H630.6z M620.1,373.4l-8.7,8.7h-42.8
			l-8.7-8.7H620.1z M609.6,340.1h-39.2l19.6-19.6L609.6,340.1z M568.6,341.9h42.8l8.7,8.7h-60.2L568.6,341.9z"/>
		<path class="st0" d="M590,408c-0.5,0-1-0.2-1.4-0.6l-44-44c-0.8-0.8-0.8-2,0-2.8l11.1-11.1c0.1-0.2,0.3-0.4,0.5-0.5l32.4-32.4
			c0.8-0.8,2.1-0.8,2.8,0l44,44c0.8,0.8,0.8,2,0,2.8l-44,44C591,407.8,590.5,408,590,408z M575.2,385.9l14.8,14.8l14.8-14.8H575.2z
			 M569.4,380.1h41.1l4.7-4.7h-50.6L569.4,380.1z M558.9,369.6h62.1l4.7-4.7h-71.6L558.9,369.6z M554.2,359.1h71.6l-4.7-4.7h-62.1
			L554.2,359.1z M564.7,348.6h50.6l-4.7-4.7h-41.1L564.7,348.6z M575.2,338.1h29.5L590,323.3L575.2,338.1z"/>
	</g>
</g>
<g>
	<path class="st0" d="M165.9,419V305.1h36.6c13,0,23.2,2.5,30.4,7.5c7.3,5,10.9,12.5,10.9,22.5c0,5.8-1.8,10.9-5.5,15.3
		c-3.6,4.3-8.6,7.3-14.8,9c7.6,1.3,13.8,4.5,18.6,9.8c4.8,5.3,7.1,11.3,7.1,18.2c0,10.2-3.6,18-10.9,23.5c-7.3,5.5-17,8.2-29.1,8.2
		H165.9z M176.2,356.1H205c9.1,0,16.1-1.8,21-5.4c5-3.6,7.4-9,7.4-16c0-7.2-2.6-12.6-7.9-16.2c-5.3-3.6-13-5.4-23.1-5.4h-26.3V356.1
		z M176.2,364.1V411h33c9.2,0,16.5-2.1,21.8-6.2c5.3-4.1,7.9-9.9,7.9-17.3c0-6.8-2.4-12.4-7.2-16.8c-4.8-4.4-11.7-6.5-20.9-6.5
		H176.2z"/>
	<path class="st0" d="M287.7,419h-10.3V305.1h10.3V419z"/>
	<path class="st0" d="M404.3,313h-43.1V419h-10.3V313h-43.1v-8h96.5V313z"/>
	<path class="st0" d="M508.6,383.4l0.2,0.5c-1.1,11.4-5.6,20.4-13.4,26.9c-7.9,6.5-18.4,9.8-31.6,9.8c-13.9,0-25.2-4.6-33.7-13.7
		c-8.5-9.2-12.8-21-12.8-35.6v-18.5c0-14.5,4.3-26.3,12.8-35.6c8.5-9.2,19.8-13.8,33.7-13.8c13.3,0,23.9,3.2,31.7,9.6
		c7.8,6.4,12.2,15.4,13.3,27.1l-0.2,0.5h-9.6c-1.4-9.4-4.9-16.7-10.7-21.7c-5.8-5-13.9-7.5-24.5-7.5c-11,0-19.7,3.9-26.4,11.6
		s-9.9,17.6-9.9,29.6v18.7c0,12.2,3.3,22.1,9.9,29.8c6.6,7.7,15.4,11.5,26.4,11.5c10.6,0,18.7-2.4,24.5-7.3
		c5.8-4.9,9.3-12.2,10.7-21.9H508.6z"/>
	<path class="st0" d="M676.4,419H666V305.1h10.3V419z"/>
	<path class="st0" d="M803.7,419h-10.2L722.3,321l-0.5,0.1V419h-10.3V305.1h10.3l71.2,97.8l0.5-0.1v-97.7h10.2V419z"/>
	<path class="st0" d="M874.3,361.1h38.1v8.8h-38.1v37.7h-10.4v-37.7h-37.3v-8.8h37.3v-36.5h10.4V361.1z"/>
</g>
</svg>
