<?xml version="1.0" encoding="utf-8"?>
<!-- Generator: Adobe Illustrator 21.0.0, SVG Export Plug-In . SVG Version: 6.00 Build 0)  -->
<svg version="1.1" id="Layer_1" xmlns="http://www.w3.org/2000/svg" xmlns:xlink="http://www.w3.org/1999/xlink" x="0px" y="0px"
	 viewBox="0 0 32 32" enable-background="new 0 0 32 32" xml:space="preserve">
<g>
	<path fill="#FFFFFF" d="M25.2,0H6.8C3.1,0,0,3.1,0,6.8v18.3C0,28.9,3.1,32,6.8,32h18.3c3.8,0,6.8-3.1,6.8-6.8V6.8
		C32,3.1,28.9,0,25.2,0z M10,18l3.4-3.4l4.1,4.1l-3.4,3.4l4.1,4.1l3.4-3.4l4.1,4.1l-3.3,3.3H22l-3.9-3.9l-3.9,3.9h-0.6l-3.8-3.8
		L6,30.2c-0.4-0.1-0.8-0.2-1.2-0.3l-2.7-2.7c-0.1-0.3-0.2-0.7-0.3-1.1l3.8-3.8l-3.9-3.9V18l4-3.9l-4-4V9.7l3.4-3.3l4.1,4.1L5.8,14
		L10,18z M30.2,25.2c0,1.1-0.3,2.1-0.9,2.9L4,2.7c0.8-0.6,1.8-0.9,2.8-0.9h18.3c2.8,0,5,2.3,5,5V25.2z"/>
	<rect x="7" y="19.3" transform="matrix(0.7071 -0.7071 0.7071 0.7071 -12.8103 13.476)" fill="#FFFFFF" width="5.8" height="5.8"/>
</g>
</svg>
