<?xml version="1.0" encoding="utf-8"?>
<!-- Generator: Adobe Illustrator 21.0.0, SVG Export Plug-In . SVG Version: 6.00 Build 0)  -->
<svg version="1.1" id="Layer_1" xmlns="http://www.w3.org/2000/svg" xmlns:xlink="http://www.w3.org/1999/xlink" x="0px" y="0px"
	 viewBox="0 0 32 32" style="enable-background:new 0 0 32 32;" xml:space="preserve">
<style type="text/css">
	.st0{fill:#FFFFFF;}
</style>
<g>
	<g>
		<path class="st0" d="M25.2,2c1.3,0,2.5,0.5,3.4,1.4c0.9,0.9,1.4,2.1,1.3,3.3l0,0v0v18.4c0,2.6-2.2,4.8-4.8,4.8H6.8
			C4.2,30,2,27.8,2,25.1V6.8C2,4.2,4.2,2,6.8,2H25.2 M25.2,0H6.8C3.1,0,0,3.1,0,6.8v18.3C0,28.9,3.1,32,6.8,32h18.3
			c3.8,0,6.8-3.1,6.8-6.8V6.8C32,3.1,28.9,0,25.2,0L25.2,0z"/>
	</g>
</g>
<g transform="translate(-390 -560)">
	<g>
		<path class="st0" d="M398.7,578.3h4l1,4.4h2.3l-3.3-14.4h-4l-3.3,14.4h2.3L398.7,578.3z M400.9,570.5l1.3,5.5h-3l1.3-5.5H400.9z"
			/>
		<path class="st0" d="M414.9,573.8v1.5c-0.8-0.9-2-1.5-3.3-1.5c-2.4,0-4.4,2-4.4,4.4s2,4.4,4.4,4.4c1.3,0,2.5-0.6,3.3-1.5v1.5h1.1
			v-8.9L414.9,573.8L414.9,573.8z M411.6,580.5c-1.2,0-2.2-1-2.2-2.2s1-2.2,2.2-2.2s2.2,1,2.2,2.2S412.8,580.5,411.6,580.5z"/>
	</g>
</g>
</svg>
