<?xml version="1.0" encoding="utf-8"?>
<!-- Generator: Adobe Illustrator 21.0.0, SVG Export Plug-In . SVG Version: 6.00 Build 0)  -->
<svg version="1.1" id="Layer_1" xmlns="http://www.w3.org/2000/svg" xmlns:xlink="http://www.w3.org/1999/xlink" x="0px" y="0px"
	 viewBox="0 0 32 32" style="enable-background:new 0 0 32 32;" xml:space="preserve">
<style type="text/css">
	.st0{fill:#FFFFFF;}
</style>
<g>
	<g>
		<path class="st0" d="M25.2,2c1.3,0,2.5,0.5,3.4,1.4c0.9,0.9,1.4,2.1,1.3,3.3l0,0v0v18.4c0,2.6-2.2,4.8-4.8,4.8H6.8
			C4.2,30,2,27.8,2,25.1V6.8C2,4.2,4.2,2,6.8,2H25.2 M25.2,0H6.8C3.1,0,0,3.1,0,6.8v18.3C0,28.9,3.1,32,6.8,32h18.3
			c3.8,0,6.8-3.1,6.8-6.8V6.8C32,3.1,28.9,0,25.2,0L25.2,0z"/>
	</g>
</g>
<g>
	<g>
		<polygon class="st0" points="4.3,31.1 3.3,30.3 19.8,11.1 31,22.2 30,23.2 19.9,13 		"/>
		<path class="st0" d="M4.4,31.7l-1.6-1.4l17-19.8l11.8,11.8L30,23.7L19.9,13.6L4.4,31.7z M3.9,30.2l0.4,0.3l15.5-18.1L30,22.6
			l0.4-0.4L19.8,11.6L3.9,30.2z"/>
	</g>
</g>
<g>
	<g>
		<path class="st0" d="M9.8,14.7c-2.6,0-4.7-2.1-4.7-4.7s2.1-4.7,4.7-4.7s4.7,2.1,4.7,4.7S12.4,14.7,9.8,14.7z M9.8,6.7
			C8,6.7,6.5,8.2,6.5,10s1.5,3.3,3.3,3.3s3.3-1.5,3.3-3.3S11.7,6.7,9.8,6.7z"/>
		<path class="st0" d="M9.8,15.1c-2.8,0-5.1-2.3-5.1-5.1S7,5,9.8,5s5.1,2.3,5.1,5.1S12.6,15.1,9.8,15.1z M9.8,5.8
			c-2.4,0-4.3,1.9-4.3,4.3c0,2.4,1.9,4.3,4.3,4.3c2.4,0,4.3-1.9,4.3-4.3C14.1,7.7,12.2,5.8,9.8,5.8z M9.8,13.8
			c-2.1,0-3.7-1.7-3.7-3.7s1.7-3.7,3.7-3.7S13.6,8,13.6,10S11.9,13.8,9.8,13.8z M9.8,7.1c-1.6,0-2.9,1.3-2.9,2.9S8.2,13,9.8,13
			s2.9-1.3,2.9-2.9S11.4,7.1,9.8,7.1z"/>
	</g>
</g>
</svg>
