<?xml version="1.0" encoding="utf-8"?>
<!-- Generator: Adobe Illustrator 21.0.0, SVG Export Plug-In . SVG Version: 6.00 Build 0)  -->
<svg version="1.1" id="Layer_1" xmlns="http://www.w3.org/2000/svg" xmlns:xlink="http://www.w3.org/1999/xlink" x="0px" y="0px"
	 viewBox="0 0 25.7 25.7" enable-background="new 0 0 25.7 25.7" xml:space="preserve">
<g>
	<path fill="#FFFFFF" d="M16.4,23c-1,0-1.7-0.8-1.7-1.7c0-0.6,0.3-1.1,0.8-1.5c0,0,0.1,0,0.1-0.1c0,0,0.1-0.1,0-0.1
		c0,0-0.6-1.5-0.6-1.5H9.2l-0.5,1.2c0,0,0,0.1,0,0.1c0,0.1,0,0.2,0.1,0.2h0.2c1,0,1.7,0.8,1.7,1.7S10,23,9.1,23H4.2
		c-1,0-1.7-0.8-1.7-1.7s0.8-1.7,1.7-1.7h0.3c0.3,0,0.6-0.2,0.7-0.5l6-15.6c0.2-0.4,0.5-0.8,0.9-1c0,0,0.1,0,0.1,0c0.1,0,0.2,0,0.2,0
		c0.1,0,0.2-0.1,0.4-0.1c0.1,0,0.3,0,0.4,0.1c0,0,0.2,0,0.3,0.1c0,0,0.1,0,0.1,0c0.1,0,0.2,0.1,0.3,0.2l-0.2,0.5l0.3-0.4
		c0,0,0.1,0.1,0.2,0.1C14,3,14.1,3,14.1,3.1c0.1,0.1,0.2,0.2,0.2,0.4l6,15.7c0.1,0.3,0.4,0.4,0.7,0.4h0.3c1,0,1.7,0.8,1.7,1.7
		S22.3,23,21.3,23H16.4z M13.8,14.7c0,0-1.4-3.8-1.4-3.8c0-0.1-0.1-0.1-0.1-0.1c0,0,0,0,0,0c-0.1,0-0.2,0-0.2,0.1c0,0,0,0.1,0,0.1
		l-1.4,3.7H13.8z"/>
	<path opacity="0.1" enable-background="new    " d="M12.8,2.9c0.1,0,0.2,0,0.3,0c0.1,0,0.1,0,0.2,0c0,0,0,0,0,0
		c0.1,0,0.2,0.1,0.3,0.2c0,0,0.1,0.1,0.1,0.1c0,0,0.1,0.1,0.1,0.2c0.1,0.1,0.1,0.1,0.1,0.2c0,0,0,0,0,0l6,15.6
		c0.2,0.4,0.6,0.8,1.1,0.8h0.3c0.7,0,1.2,0.6,1.2,1.2c0,0.7-0.6,1.2-1.2,1.2h-2.2c0,0-0.1,0-0.1,0h-2.7c-0.7,0-1.2-0.6-1.2-1.2
		c0-0.5,0.3-0.9,0.7-1.1c0,0,0,0,0,0c0.2-0.1,0.4-0.5,0.3-0.7c0,0,0,0,0,0l-0.7-1.9H8.9l-0.6,1.6c0,0,0,0,0,0c0,0,0,0,0,0
		c0,0,0,0,0,0c0,0.1,0,0.1,0,0.2c0,0.3,0.3,0.6,0.6,0.6h0.2c0.7,0,1.2,0.6,1.2,1.2c0,0.7-0.6,1.2-1.2,1.2H6.2c0,0,0,0,0,0h-2
		c-0.7,0-1.2-0.6-1.2-1.2c0-0.7,0.5-1.2,1.2-1.2h0.3c0.5,0,1-0.3,1.1-0.8l6-15.6C11.7,3.3,12,3.1,12.3,3c0,0,0,0,0,0
		c0,0,0.1,0,0.1,0C12.6,2.9,12.6,2.9,12.8,2.9 M11.5,10.7C11.5,10.7,11.5,10.7,11.5,10.7C11.5,10.7,11.5,10.7,11.5,10.7l-1.7,4.4v0
		h4.7l-1.7-4.5v0c-0.1-0.2-0.2-0.3-0.4-0.4c-0.1,0-0.2,0-0.2,0C11.9,10.2,11.6,10.4,11.5,10.7C11.5,10.7,11.5,10.7,11.5,10.7
		 M12.8,1.9c-0.2,0-0.4,0-0.5,0.1c-0.1,0-0.2,0-0.3,0.1l0,0c0,0-0.1,0-0.1,0c-0.5,0.2-1,0.7-1.2,1.2l-6,15.6c0,0.1-0.1,0.1-0.2,0.1
		H4.2c-1.2,0-2.2,1-2.2,2.2s1,2.2,2.2,2.2h2h2.9c1.2,0,2.2-1,2.2-2.2c0-1.1-0.8-2.1-1.9-2.2l0.2-0.5h5.2l0.3,0.9
		c-0.6,0.4-0.9,1.1-0.9,1.8c0,1.2,1,2.2,2.2,2.2h2.7h0.1h2.2c1.2,0,2.2-1,2.2-2.2s-1-2.2-2.2-2.2H21c-0.1,0-0.2-0.1-0.2-0.1l-6-15.6
		c0,0,0-0.1,0-0.1c0,0,0,0,0-0.1c-0.1-0.1-0.1-0.2-0.2-0.3c-0.1-0.1-0.1-0.2-0.3-0.3c-0.1-0.1-0.2-0.2-0.3-0.2l-0.1,0
		c-0.1-0.1-0.2-0.1-0.3-0.2C13.6,2,13.6,2,13.5,2c-0.1,0-0.2-0.1-0.3-0.1C13.1,1.9,12.9,1.9,12.8,1.9L12.8,1.9z M11.3,14.2l0.9-2.4
		l0.9,2.4H11.3L11.3,14.2z"/>
</g>
</svg>
