<?xml version="1.0" encoding="utf-8"?>
<!-- Generator: Adobe Illustrator 21.0.0, SVG Export Plug-In . SVG Version: 6.00 Build 0)  -->
<svg version="1.1"
	 id="svg86" xmlns:cc="http://creativecommons.org/ns#" xmlns:dc="http://purl.org/dc/elements/1.1/" xmlns:rdf="http://www.w3.org/1999/02/22-rdf-syntax-ns#" xmlns:svg="http://www.w3.org/2000/svg"
	 xmlns="http://www.w3.org/2000/svg" xmlns:xlink="http://www.w3.org/1999/xlink" x="0px" y="0px" viewBox="0 0 1024 768"
	 style="enable-background:new 0 0 1024 768;" xml:space="preserve">
<style type="text/css">
	.st0{fill:#292D32;}
</style>
<g id="logo-group">
	<g id="title">
		<path id="path94" class="st0" d="M243,491c-4.7,0-8.9-0.7-12.6-2.2c-3.7-1.6-6.5-3.6-8.5-6l0.9-12.2h2.1c0.5,1.5,1.1,5.2,1.6,11.1
			c1.6,1.9,3.6,3.4,6,4.5c2.5,1.1,5.2,1.6,8.4,1.6c4.3,0,7.9-1.1,10.9-3.3c3-2.3,4.5-5.5,4.5-9.5c0-2.7-0.7-5-2.2-6.8
			c-1.4-1.9-3.2-3.5-5.3-4.7s-4.9-2.6-8.5-4.1c-3.8-1.7-6.9-3.2-9.2-4.5c-2.3-1.3-4.2-3.1-5.8-5.2c-1.6-2.2-2.3-4.9-2.3-8.2
			c0-4.9,1.9-8.6,5.7-11.1c3.8-2.6,8.9-3.9,15.3-3.9c8.2,0,14.4,2.2,18.5,6.5l-0.9,10.5h-2.1c-0.8-2.2-1.3-5.5-1.7-9.7
			c-1.4-1.3-3.1-2.2-5.1-2.9c-2-0.7-4.2-1.1-6.7-1.1c-4.8,0-8.4,0.9-10.9,2.7c-2.5,1.8-3.7,4.4-3.7,7.8c0,2,0.6,3.7,1.8,5.2
			c1.3,1.4,2.8,2.7,4.6,3.8c1.9,1,4.4,2.2,7.6,3.6c4.1,1.8,7.5,3.5,10,5c2.6,1.5,4.8,3.6,6.6,6.2c1.9,2.6,2.8,5.8,2.8,9.6
			c0,3.5-1,6.6-2.9,9.3c-1.9,2.6-4.4,4.7-7.7,6.1C250.9,490.3,247.2,491,243,491L243,491z"/>
		<path id="path96" class="st0" d="M313.2,467.8h-34.6c0.1,5.9,1.6,10.7,4.5,14.5c3,3.8,7.3,5.7,12.9,5.7c2.4,0,4.9-0.4,7.5-1.2
			c2.6-0.8,4.9-1.9,6.8-3.2l0.8,2.3c-1.7,1.4-4.1,2.7-7.2,3.7c-3,1-6.3,1.4-9.9,1.4c-4.7,0-8.9-1-12.5-2.9c-3.5-2-6.3-4.7-8.3-8.2
			c-1.9-3.5-2.9-7.6-2.9-12.1c0-7.4,2-13.1,6-17.2c4.1-4.1,9.6-6.1,16.7-6.1c4.5,0,8.2,1,11.2,2.9c3,1.9,5.2,4.5,6.7,7.7
			c1.4,3.2,2.2,6.7,2.2,10.6V467.8z M306,464.7c0-2.7-0.4-5.3-1.3-7.9s-2.2-4.7-4.1-6.4c-1.9-1.7-4.3-2.6-7.3-2.6
			c-4.5,0-8,1.6-10.4,4.8c-2.4,3.2-3.8,7.2-4.2,12.1H306z"/>
		<path id="path98" class="st0" d="M333.3,491c-4.8,0-8.5-1.1-11-3.3s-3.8-5.4-3.8-9.6c0-4.6,1.6-7.9,4.9-10
			c3.3-2.1,7.5-3.1,12.6-3.1h13.3v-7.2c0-3.4-1-5.9-3.1-7.6c-2-1.6-4.9-2.4-8.6-2.4c-2.3,0-4.8,0.4-7.3,1.1
			c-2.5,0.7-4.7,1.5-6.8,2.6l-0.6-2.8c2.4-1.3,5.1-2.2,8.1-3c3.1-0.8,6.2-1.2,9.3-1.2c5.3,0,9.5,1.2,12.6,3.5
			c3.1,2.3,4.6,5.3,4.6,9.2v29.5c2.1,0.4,4.2,0.9,6.2,1.4v0.7l-14.4,1.4v-6.6c-2.5,2.6-5.1,4.5-7.9,5.7
			C338.7,490.5,336,491,333.3,491L333.3,491z M336.2,487.7c2.5,0,4.9-0.7,7.5-2.2c2.6-1.6,4.5-3.4,5.8-5.4v-11.9h-11.3
			c-3.8,0-6.7,0.9-8.6,2.6c-1.9,1.7-2.9,4.1-2.9,7.2c0,3.2,0.9,5.7,2.6,7.3C331,486.9,333.3,487.7,336.2,487.7L336.2,487.7z"/>
		<path id="path100" class="st0" d="M396.2,489.7c-2.7,0.9-5.8,1.3-9.2,1.3c-4.3,0-7.6-1.1-10-3.2c-2.4-2.2-3.6-5.5-3.6-10v-29.2
			h-7.8v-3.2h7.8v-4.9c2.3-1,3.7-3.4,4.2-7.2h3.9v12.1H395v3.2h-13.5v29.2c0,3.6,0.7,6.1,2.1,7.6c1.4,1.5,3.5,2.2,6.1,2.2
			c1.7,0,3.7-0.4,5.8-1.1L396.2,489.7z"/>
		<path id="path102" class="st0" d="M430.6,489.7c-2.7,0.9-5.8,1.3-9.2,1.3c-4.3,0-7.6-1.1-10-3.2s-3.6-5.5-3.6-10v-29.2H400v-3.2
			h7.8v-4.9c2.3-1,3.7-3.4,4.2-7.2h3.9v12.1h13.5v3.2h-13.5v29.2c0,3.6,0.7,6.1,2.1,7.6c1.4,1.5,3.5,2.2,6.1,2.2
			c1.7,0,3.7-0.4,5.8-1.1L430.6,489.7z"/>
		<path id="path104" class="st0" d="M435.8,489.1c1.3-0.4,3.7-1,7.2-1.7v-57.1c-2.5-0.5-4.6-1-6.3-1.6v-0.6l14.4-1.5v60.9
			c2.6,0.4,5,1,7.2,1.7v1h-22.5V489.1z"/>
		<path id="path106" class="st0" d="M506.3,467.8h-34.6c0.1,5.9,1.6,10.7,4.5,14.5c3,3.8,7.3,5.7,12.9,5.7c2.4,0,4.9-0.4,7.5-1.2
			c2.6-0.8,4.9-1.9,6.8-3.2l0.8,2.3c-1.7,1.4-4.1,2.7-7.2,3.7c-3,1-6.3,1.4-9.9,1.4c-4.7,0-8.9-1-12.5-2.9c-3.5-2-6.3-4.7-8.3-8.2
			c-1.9-3.5-2.9-7.6-2.9-12.1c0-7.4,2-13.1,6-17.2c4.1-4.1,9.6-6.1,16.7-6.1c4.5,0,8.2,1,11.2,2.9c3,1.9,5.2,4.5,6.7,7.7
			c1.4,3.2,2.2,6.7,2.2,10.6V467.8z M499.1,464.7c0-2.7-0.4-5.3-1.3-7.9c-0.8-2.6-2.2-4.7-4.1-6.4c-1.9-1.7-4.3-2.6-7.3-2.6
			c-4.5,0-8,1.6-10.4,4.8c-2.4,3.2-3.8,7.2-4.2,12.1H499.1z"/>
		<path id="path108" class="st0" d="M565.6,491c-9.5,0-16.7-2.8-21.6-8.5c-4.9-5.7-7.3-13.6-7.3-23.8c0-10.1,2.5-18,7.5-23.7
			c5-5.8,12.1-8.6,21.3-8.6c7.9,0,14.1,2.1,18.6,6.2l-0.8,11h-2.2c-0.7-2.1-1.3-5.5-1.7-10.1c-1.4-1.1-3.2-2-5.2-2.7
			c-2-0.7-4.2-1.1-6.6-1.1c-7.5,0-13.1,2.6-16.9,7.9c-3.7,5.3-5.6,12.3-5.6,21.1c0,8.9,1.7,16,5.2,21.2c3.5,5.2,9.1,7.8,16.6,7.8
			c2.3,0,4.9-0.4,7.7-1.3c2.9-0.8,5.6-2,8-3.6l1.2,2.4c-2.1,1.9-4.8,3.3-8,4.3C572.8,490.5,569.3,491,565.6,491z"/>
		<path id="path110" class="st0" d="M614.3,491c-7.5,0-13.3-2-17.5-6.1c-4.1-4.1-6.2-9.8-6.2-17.1c0-7.3,2.1-13,6.2-17.1
			c4.2-4.1,10-6.2,17.5-6.2c7.4,0,13.2,2.1,17.4,6.2c4.2,4.1,6.3,9.8,6.3,17.1c0,7.3-2.1,13-6.3,17.1C627.5,489,621.7,491,614.3,491
			z M614.3,487.9c4.7,0,8.5-1.8,11.3-5.3c2.8-3.6,4.2-8.5,4.2-14.7s-1.4-11.1-4.2-14.7c-2.8-3.6-6.6-5.4-11.3-5.4
			c-4.9,0-8.7,1.8-11.5,5.4c-2.8,3.5-4.1,8.4-4.1,14.7s1.4,11.1,4.1,14.7C605.6,486.1,609.4,487.9,614.3,487.9z"/>
		<path id="path112" class="st0" d="M667.5,429.1c-2.5,0-4.5,0.9-6,2.7c-1.4,1.7-2.2,4.4-2.2,8.1v5.5h13.6v3.2h-13.6v38.8
			c2.8,0.4,5.3,1,7.6,1.7v1H644v-1c3.1-1,5.5-1.5,7.3-1.7v-38.8h-8.5v-3.2h8.5v-3.8c0-5.2,1.1-9.1,3.4-11.8c2.3-2.7,5.7-4,10.2-4
			c3.2,0,6.3,0.5,9.2,1.4l-0.6,3.1C671.3,429.4,669.4,429.1,667.5,429.1L667.5,429.1z"/>
		<path id="path114" class="st0" d="M703.5,429.1c-2.5,0-4.5,0.9-6,2.7c-1.4,1.7-2.2,4.4-2.2,8.1v5.5h13.6v3.2h-13.6v38.8
			c2.8,0.4,5.3,1,7.6,1.7v1H680v-1c3.1-1,5.5-1.5,7.3-1.7v-38.8h-8.5v-3.2h8.5v-3.8c0-5.2,1.1-9.1,3.4-11.8c2.3-2.7,5.7-4,10.2-4
			c3.2,0,6.3,0.5,9.2,1.4l-0.6,3.1C707.3,429.4,705.4,429.1,703.5,429.1L703.5,429.1z"/>
		<path id="path116" class="st0" d="M754.1,467.8h-34.6c0.1,5.9,1.6,10.7,4.5,14.5c3,3.8,7.3,5.7,12.9,5.7c2.4,0,4.9-0.4,7.5-1.2
			c2.6-0.8,4.9-1.9,6.8-3.2l0.8,2.3c-1.7,1.4-4.1,2.7-7.2,3.7c-3,1-6.3,1.4-9.9,1.4c-4.7,0-8.9-1-12.5-2.9c-3.5-2-6.3-4.7-8.3-8.2
			c-1.9-3.5-2.9-7.6-2.9-12.1c0-7.4,2-13.1,6-17.2c4.1-4.1,9.6-6.1,16.7-6.1c4.5,0,8.2,1,11.2,2.9c3,1.9,5.2,4.5,6.7,7.7
			c1.4,3.2,2.2,6.7,2.2,10.6V467.8z M746.9,464.7c0-2.7-0.4-5.3-1.3-7.9c-0.8-2.6-2.2-4.7-4.1-6.4c-1.9-1.7-4.3-2.6-7.3-2.6
			c-4.5,0-8,1.6-10.4,4.8c-2.4,3.2-3.8,7.2-4.2,12.1H746.9z"/>
		<path id="path118" class="st0" d="M802,467.8h-34.6c0.1,5.9,1.6,10.7,4.5,14.5c3,3.8,7.3,5.7,12.9,5.7c2.4,0,4.9-0.4,7.5-1.2
			c2.6-0.8,4.9-1.9,6.8-3.2l0.8,2.3c-1.7,1.4-4.1,2.7-7.2,3.7c-3,1-6.3,1.4-9.9,1.4c-4.7,0-8.9-1-12.5-2.9c-3.5-2-6.3-4.7-8.3-8.2
			c-1.9-3.5-2.9-7.6-2.9-12.1c0-7.4,2-13.1,6-17.2c4.1-4.1,9.6-6.1,16.7-6.1c4.5,0,8.2,1,11.2,2.9c3,1.9,5.2,4.5,6.7,7.7
			c1.4,3.2,2.2,6.7,2.2,10.6V467.8z M794.8,464.7c0-2.7-0.4-5.3-1.3-7.9c-0.8-2.6-2.2-4.7-4.1-6.4c-1.9-1.7-4.3-2.6-7.3-2.6
			c-4.5,0-8,1.6-10.4,4.8c-2.4,3.2-3.8,7.2-4.2,12.1H794.8z"/>
	</g>
	<g id="tagline">
	</g>
</g>
<g>
	<path class="st0" d="M517.2,330.3c-13.5-12.2,73.6-37.7,53.8-9.5C600.8,341.6,508.7,346.4,517.2,330.3z"/>
	<path class="st0" d="M517.2,337.9c6.9-16.9,60.6,56.2,27.3,47.3C535.1,420.3,499.2,335.4,517.2,337.9z"/>
	<path class="st0" d="M510.1,340.6c18.2,0.7-32.1,76.2-35.1,41.8C438.7,385.6,506.2,322.7,510.1,340.6z"/>
	<path class="st0" d="M505.1,334.7c5.6,17.3-82.6-4.1-51.3-18.7C438.4,283.1,520.6,325,505.1,334.7z"/>
	<path class="st0" d="M508.9,328.1c-14.4,11.2-24.4-79,0-54.6C534.6,247.8,523.3,339.3,508.9,328.1z"/>
</g>
</svg>
