<?xml version="1.0" encoding="utf-8"?>
<!-- Generator: Adobe Illustrator 21.0.0, SVG Export Plug-In . SVG Version: 6.00 Build 0)  -->
<svg version="1.1" id="Layer_1" xmlns="http://www.w3.org/2000/svg" xmlns:xlink="http://www.w3.org/1999/xlink" x="0px" y="0px"
	 viewBox="0 0 1024 768" style="enable-background:new 0 0 1024 768;" xml:space="preserve">
<style type="text/css">
	.st0{fill:#9EEFA4;}
</style>
<g>
	<path class="st0" d="M296.8,366.6h-31.1c-0.9,0-1.6-0.7-1.6-1.6v-15.5c0-0.9,0.7-1.6,1.6-1.6h31.1c0.9,0,1.6,0.7,1.6,1.6V365
		C298.3,365.9,297.6,366.6,296.8,366.6z M267.3,363.5h27.9V351h-27.9V363.5z"/>
	<path class="st0" d="M296.8,367.6h-31.1c-1.4,0-2.6-1.1-2.6-2.6v-15.5c0-1.4,1.1-2.6,2.6-2.6h31.1c1.4,0,2.6,1.1,2.6,2.6V365
		C299.3,366.4,298.2,367.6,296.8,367.6z M265.7,348.9c-0.3,0-0.6,0.2-0.6,0.6V365c0,0.3,0.2,0.6,0.6,0.6h31.1c0.3,0,0.6-0.2,0.6-0.6
		v-15.5c0-0.3-0.2-0.6-0.6-0.6H265.7z M296.2,364.5h-29.9V350h29.9V364.5z M268.3,362.5h25.9V352h-25.9V362.5z"/>
</g>
<g>
	<path class="st0" d="M301.4,357.3h-40.4c-0.9,0-1.6-0.7-1.6-1.6c0-0.9,0.7-1.6,1.6-1.6h40.4c0.9,0,1.6,0.7,1.6,1.6
		C303,356.6,302.3,357.3,301.4,357.3z"/>
	<path class="st0" d="M301.4,358.3h-40.4c-1.4,0-2.6-1.1-2.6-2.6s1.1-2.6,2.6-2.6h40.4c1.4,0,2.6,1.1,2.6,2.6
		S302.9,358.3,301.4,358.3z M261.1,355.1c-0.3,0-0.6,0.2-0.6,0.6s0.2,0.6,0.6,0.6h40.4c0.3,0,0.6-0.2,0.6-0.6s-0.2-0.6-0.6-0.6
		H261.1z"/>
</g>
<g>
	<path class="st0" d="M287.5,351h-12.4c-0.9,0-1.6-0.7-1.6-1.6v-6.2c0-0.9,0.7-1.6,1.6-1.6h12.4c0.9,0,1.6,0.7,1.6,1.6v6.2
		C289,350.3,288.3,351,287.5,351z M276.6,347.9h9.3v-3.1h-9.3V347.9z"/>
	<path class="st0" d="M287.5,352h-12.4c-1.4,0-2.6-1.1-2.6-2.6v-6.2c0-1.4,1.1-2.6,2.6-2.6h12.4c1.4,0,2.6,1.1,2.6,2.6v6.2
		C290,350.9,288.9,352,287.5,352z M275.1,342.7c-0.3,0-0.6,0.2-0.6,0.6v6.2c0,0.3,0.2,0.6,0.6,0.6h12.4c0.3,0,0.6-0.2,0.6-0.6v-6.2
		c0-0.3-0.2-0.6-0.6-0.6H275.1z M286.9,348.9h-11.3v-5.1h11.3V348.9z M277.6,346.9h7.3v-1.1h-7.3V346.9z"/>
</g>
<g>
	<path class="st0" d="M281.3,343.3c-0.9,0-1.6-0.7-1.6-1.6v-6.2c0-0.9,0.7-1.6,1.6-1.6s1.6,0.7,1.6,1.6v6.2
		C282.8,342.6,282.1,343.3,281.3,343.3z"/>
	<path class="st0" d="M281.3,344.3c-1.4,0-2.6-1.1-2.6-2.6v-6.2c0-1.4,1.1-2.6,2.6-2.6s2.6,1.1,2.6,2.6v6.2
		C283.8,343.1,282.7,344.3,281.3,344.3z M281.3,335c-0.3,0-0.6,0.2-0.6,0.6v6.2c0,0.3,0.2,0.6,0.6,0.6s0.6-0.2,0.6-0.6v-6.2
		C281.8,335.2,281.6,335,281.3,335z"/>
</g>
<g>
	<path class="st0" d="M292.9,407c-0.6,0-1.2-0.4-1.4-0.9c-4.7-11.1-5.6-35.1-5.6-41c0-0.9,0.7-1.6,1.6-1.6c0.9,0,1.6,0.7,1.6,1.6
		c0,8.5,1.4,30.2,5.4,39.8c0.3,0.8,0,1.7-0.8,2C293.3,407,293.1,407,292.9,407z"/>
	<path class="st0" d="M292.9,408c-1,0-2-0.6-2.4-1.6c-4.7-11.2-5.7-35.5-5.7-41.3c0-1.4,1.1-2.6,2.6-2.6s2.6,1.1,2.6,2.6
		c0,8.4,1.3,29.9,5.3,39.4c0.5,1.3-0.1,2.8-1.4,3.3C293.6,407.9,293.2,408,292.9,408z M287.4,364.5c-0.3,0-0.6,0.2-0.6,0.6
		c0,5.8,0.9,29.6,5.5,40.6c0.1,0.3,0.5,0.4,0.7,0.3c0.3-0.1,0.4-0.5,0.3-0.7c-4.1-9.7-5.4-31.6-5.4-40.1
		C287.9,364.8,287.7,364.5,287.4,364.5z"/>
</g>
<g>
	<path class="st0" d="M268.8,407c-0.2,0-0.4,0-0.6-0.1c-0.8-0.3-1.2-1.2-0.8-2c4-9.6,5.4-31.3,5.4-39.8c0-0.9,0.7-1.6,1.6-1.6
		c0.9,0,1.6,0.7,1.6,1.6c0,5.8-1,29.9-5.6,41C269.9,406.6,269.4,407,268.8,407z"/>
	<path class="st0" d="M268.8,408c-0.3,0-0.7-0.1-1-0.2c-0.6-0.3-1.1-0.7-1.4-1.4c-0.3-0.6-0.3-1.3,0-2c4-9.4,5.3-31,5.3-39.4
		c0-1.4,1.1-2.6,2.6-2.6s2.6,1.1,2.6,2.6c0,5.9-1,30.1-5.7,41.3C270.7,407.4,269.8,408,268.8,408z M274.3,364.5
		c-0.3,0-0.6,0.2-0.6,0.6c0,8.5-1.4,30.4-5.4,40.1c-0.1,0.1-0.1,0.3,0,0.4c0,0.1,0.1,0.2,0.3,0.3c0.3,0.1,0.6,0,0.7-0.3
		c4.6-10.9,5.5-34.8,5.5-40.6C274.8,364.8,274.6,364.5,274.3,364.5z"/>
</g>
<g>
	<path class="st0" d="M155.9,404.6c-3.7-1.6-7.4-4.1-10.8-7.6c-0.8-0.7-1.2-1.5-1.2-2.4c0-0.8,0.3-1.5,1-2.2c0.6-0.7,1.4-1,2.2-1
		s1.5,0.3,2.2,1c5.2,5.8,11.8,8.7,19.7,8.7c4.8,0,8.9-1.1,12.1-3.4c3.2-2.3,4.8-5.3,4.8-9c0-2.9-0.8-5.3-2.4-7.2
		c-1.6-1.9-3.7-3.5-6.2-4.7c-2.6-1.2-5.8-2.5-9.8-3.7c-4.3-1.3-7.9-2.7-10.8-4.2c-2.9-1.5-5.3-3.6-7.1-6.2c-1.8-2.6-2.7-5.9-2.7-9.8
		c0-3.6,1-6.7,2.9-9.5c1.9-2.8,4.6-4.9,8.1-6.5c3.5-1.6,7.4-2.4,12-2.4c4.1,0,8,0.7,11.6,2.1c3.6,1.4,6.5,3.3,8.6,5.9
		c1,1.1,1.5,2.1,1.5,2.9c0,0.7-0.3,1.4-1,2.1c-0.7,0.6-1.4,1-2.2,1c-0.7,0-1.2-0.2-1.7-0.7c-1.8-2.2-4.2-3.9-7.3-5.2
		c-3-1.3-6.2-2-9.5-2c-4.9,0-8.9,1.1-12,3.3c-3.1,2.2-4.6,5.2-4.6,8.9c0,3.9,1.5,6.9,4.4,9c3,2.1,7.2,4,12.7,5.8
		c4.8,1.4,8.7,2.9,11.7,4.3c3,1.5,5.5,3.6,7.4,6.3c1.9,2.7,2.9,6.3,2.9,10.7c0,3.4-1,6.5-3,9.3c-2,2.8-4.7,5-8.3,6.6
		c-3.5,1.6-7.6,2.4-12.1,2.4C163.9,407.1,159.6,406.3,155.9,404.6z"/>
	<path class="st0" d="M244.6,401c0.6,0.6,0.9,1.3,0.9,2.1c0,0.9-0.3,1.6-0.9,2.1c-0.6,0.5-1.3,0.8-2.2,0.8h-37
		c-0.9,0-1.6-0.3-2.2-0.9c-0.6-0.6-0.9-1.3-0.9-2.2v-64.6c0-0.9,0.3-1.6,0.9-2.2c0.6-0.6,1.3-0.9,2.2-0.9h37c0.9,0,1.6,0.3,2.2,0.9
		c0.6,0.6,0.9,1.3,0.9,2.2c0,0.9-0.3,1.6-0.9,2.1c-0.6,0.5-1.3,0.8-2.2,0.8h-33.7v25.3h29.2c0.9,0,1.6,0.3,2.2,0.9
		c0.6,0.6,0.9,1.3,0.9,2.2c0,0.9-0.3,1.6-0.9,2.1c-0.6,0.5-1.3,0.8-2.2,0.8h-29.2v27.4h33.7C243.3,400.1,244,400.4,244.6,401z"/>
	<path class="st0" d="M363,336.2c0.6,0.5,0.9,1.2,0.9,2.1c0,0.9-0.3,1.6-0.9,2.1c-0.6,0.5-1.3,0.8-2.2,0.8h-20.9V403
		c0,0.9-0.3,1.6-0.9,2.2c-0.6,0.6-1.3,0.9-2.2,0.9c-0.9,0-1.7-0.3-2.3-0.9c-0.6-0.6-0.9-1.3-0.9-2.2v-61.9h-20.9
		c-0.9,0-1.6-0.3-2.2-0.8c-0.6-0.5-0.9-1.2-0.9-2.1c0-0.8,0.3-1.5,0.9-2c0.6-0.5,1.3-0.8,2.2-0.8h48
		C361.7,335.4,362.4,335.7,363,336.2z"/>
	<path class="st0" d="M422.9,336.2c0.6,0.5,0.9,1.2,0.9,2.1c0,0.9-0.3,1.6-0.9,2.1c-0.6,0.5-1.3,0.8-2.2,0.8h-20.9V403
		c0,0.9-0.3,1.6-0.9,2.2c-0.6,0.6-1.3,0.9-2.2,0.9c-0.9,0-1.7-0.3-2.3-0.9c-0.6-0.6-0.9-1.3-0.9-2.2v-61.9h-20.9
		c-0.9,0-1.6-0.3-2.2-0.8c-0.6-0.5-0.9-1.2-0.9-2.1c0-0.8,0.3-1.5,0.9-2c0.6-0.5,1.3-0.8,2.2-0.8h48
		C421.6,335.4,422.4,335.7,422.9,336.2z"/>
	<path class="st0" d="M473.9,400.9c0.6,0.5,0.9,1.2,0.9,2.1c0,0.9-0.3,1.6-0.9,2.2c-0.6,0.6-1.3,0.9-2.2,0.9h-36
		c-0.9,0-1.6-0.3-2.2-0.9c-0.6-0.6-0.9-1.3-0.9-2.2v-64.6c0-0.9,0.3-1.6,0.9-2.2c0.6-0.6,1.4-0.9,2.3-0.9c0.9,0,1.6,0.3,2.2,0.9
		c0.6,0.6,0.9,1.3,0.9,2.2v61.7h32.7C472.6,400.1,473.3,400.4,473.9,400.9z"/>
	<path class="st0" d="M524.6,401c0.6,0.6,0.9,1.3,0.9,2.1c0,0.9-0.3,1.6-0.9,2.1c-0.6,0.5-1.3,0.8-2.2,0.8h-37
		c-0.9,0-1.6-0.3-2.2-0.9c-0.6-0.6-0.9-1.3-0.9-2.2v-64.6c0-0.9,0.3-1.6,0.9-2.2c0.6-0.6,1.3-0.9,2.2-0.9h37c0.9,0,1.6,0.3,2.2,0.9
		c0.6,0.6,0.9,1.3,0.9,2.2c0,0.9-0.3,1.6-0.9,2.1c-0.6,0.5-1.3,0.8-2.2,0.8h-33.7v25.3h29.2c0.9,0,1.6,0.3,2.2,0.9
		c0.6,0.6,0.9,1.3,0.9,2.2c0,0.9-0.3,1.6-0.9,2.1c-0.6,0.5-1.3,0.8-2.2,0.8h-29.2v27.4h33.7C523.3,400.1,524,400.4,524.6,401z"/>
	<path class="st0" d="M612.2,343.2c0,0.6-0.2,1.3-0.7,2c-0.6,0.7-1.4,1.1-2.3,1.1c-0.5,0-1.1-0.2-1.6-0.5
		c-5.4-3.6-11.3-5.3-17.7-5.3c-5.4,0-10.4,1.3-14.8,3.8c-4.4,2.6-7.9,6.1-10.4,10.7c-2.5,4.6-3.8,9.8-3.8,15.7
		c0,6,1.3,11.3,3.8,15.9c2.6,4.6,6,8.2,10.4,10.7c4.4,2.5,9.3,3.8,14.7,3.8c6.4,0,12.2-1.7,17.6-5.2c0.5-0.3,1.1-0.5,1.7-0.5
		c0.9,0,1.7,0.4,2.3,1.2c0.5,0.5,0.7,1.2,0.7,1.9c0,1.1-0.5,1.9-1.4,2.4c-2.6,1.8-5.9,3.2-9.7,4.4c-3.8,1.2-7.6,1.8-11.2,1.8
		c-6.4,0-12.3-1.5-17.7-4.6c-5.4-3.1-9.7-7.3-12.9-12.9c-3.2-5.5-4.8-11.8-4.8-18.9c0-6.8,1.6-13,4.7-18.5c3.2-5.5,7.4-9.9,12.8-13
		c5.4-3.1,11.3-4.7,17.9-4.7c3.8,0,7.5,0.5,11,1.6c3.6,1.1,6.8,2.6,9.7,4.5C611.7,341.3,612.2,342.1,612.2,343.2z"/>
	<path class="st0" d="M679.6,389.4c-2.9,5.5-6.9,9.8-12,13c-5.1,3.1-10.9,4.7-17.5,4.7c-6.5,0-12.3-1.6-17.5-4.7
		c-5.1-3.1-9.1-7.5-12-13c-2.9-5.5-4.3-11.7-4.3-18.7c0-7,1.4-13.3,4.3-18.8c2.9-5.5,6.9-9.8,12-12.9c5.1-3.1,10.9-4.6,17.5-4.6
		c6.5,0,12.3,1.5,17.5,4.6c5.1,3.1,9.1,7.4,12,12.9c2.9,5.5,4.3,11.8,4.3,18.8C683.9,377.7,682.5,383.9,679.6,389.4z M674,355.1
		c-2.3-4.6-5.5-8.2-9.7-10.7c-4.1-2.6-8.9-3.8-14.2-3.8c-5.3,0-10,1.3-14.2,3.8c-4.1,2.6-7.4,6.1-9.7,10.7
		c-2.3,4.6-3.5,9.8-3.5,15.7s1.2,11.1,3.5,15.7c2.3,4.6,5.5,8.2,9.7,10.7c4.1,2.6,8.9,3.8,14.2,3.8c5.3,0,10-1.3,14.2-3.8
		c4.1-2.6,7.4-6.1,9.7-10.7c2.3-4.6,3.5-9.8,3.5-15.7S676.3,359.7,674,355.1z"/>
	<path class="st0" d="M736.1,336.3c0.6,0.6,0.9,1.3,0.9,2.2c0,0.8-0.3,1.5-0.9,2.1c-0.6,0.6-1.3,0.9-2.2,0.9h-33.6v25.3h29.1
		c0.9,0,1.6,0.3,2.2,0.8c0.6,0.5,0.9,1.2,0.9,2.1c0,0.9-0.3,1.6-0.9,2.1c-0.6,0.5-1.3,0.8-2.2,0.8h-29.1V403c0,0.9-0.3,1.6-0.9,2.2
		c-0.6,0.6-1.3,0.9-2.2,0.9c-0.9,0-1.7-0.3-2.3-0.9c-0.6-0.6-0.9-1.3-0.9-2.2v-64.6c0-0.9,0.3-1.6,0.9-2.2c0.6-0.6,1.3-0.9,2.2-0.9
		H734C734.9,335.4,735.6,335.7,736.1,336.3z"/>
	<path class="st0" d="M789.2,336.3c0.6,0.6,0.9,1.3,0.9,2.2c0,0.8-0.3,1.5-0.9,2.1c-0.6,0.6-1.3,0.9-2.2,0.9h-33.6v25.3h29.1
		c0.9,0,1.6,0.3,2.2,0.8c0.6,0.5,0.9,1.2,0.9,2.1c0,0.9-0.3,1.6-0.9,2.1c-0.6,0.5-1.3,0.8-2.2,0.8h-29.1V403c0,0.9-0.3,1.6-0.9,2.2
		c-0.6,0.6-1.3,0.9-2.2,0.9c-0.9,0-1.7-0.3-2.3-0.9c-0.6-0.6-0.9-1.3-0.9-2.2v-64.6c0-0.9,0.3-1.6,0.9-2.2c0.6-0.6,1.3-0.9,2.2-0.9
		h36.7C787.9,335.4,788.7,335.7,789.2,336.3z"/>
	<path class="st0" d="M842.6,401c0.6,0.6,0.9,1.3,0.9,2.1c0,0.9-0.3,1.6-0.9,2.1c-0.6,0.5-1.3,0.8-2.2,0.8h-37
		c-0.9,0-1.6-0.3-2.2-0.9c-0.6-0.6-0.9-1.3-0.9-2.2v-64.6c0-0.9,0.3-1.6,0.9-2.2c0.6-0.6,1.3-0.9,2.2-0.9h37c0.9,0,1.6,0.3,2.2,0.9
		c0.6,0.6,0.9,1.3,0.9,2.2c0,0.9-0.3,1.6-0.9,2.1c-0.6,0.5-1.3,0.8-2.2,0.8h-33.7v25.3h29.2c0.9,0,1.6,0.3,2.2,0.9
		c0.6,0.6,0.9,1.3,0.9,2.2c0,0.9-0.3,1.6-0.9,2.1c-0.6,0.5-1.3,0.8-2.2,0.8h-29.2v27.4h33.7C841.3,400.1,842,400.4,842.6,401z"/>
	<path class="st0" d="M895.9,401c0.6,0.6,0.9,1.3,0.9,2.1c0,0.9-0.3,1.6-0.9,2.1c-0.6,0.5-1.3,0.8-2.2,0.8h-37
		c-0.9,0-1.6-0.3-2.2-0.9c-0.6-0.6-0.9-1.3-0.9-2.2v-64.6c0-0.9,0.3-1.6,0.9-2.2c0.6-0.6,1.3-0.9,2.2-0.9h37c0.9,0,1.6,0.3,2.2,0.9
		c0.6,0.6,0.9,1.3,0.9,2.2c0,0.9-0.3,1.6-0.9,2.1c-0.6,0.5-1.3,0.8-2.2,0.8H860v25.3h29.2c0.9,0,1.6,0.3,2.2,0.9
		c0.6,0.6,0.9,1.3,0.9,2.2c0,0.9-0.3,1.6-0.9,2.1c-0.6,0.5-1.3,0.8-2.2,0.8H860v27.4h33.7C894.6,400.1,895.3,400.4,895.9,401z"/>
</g>
</svg>
